<svg version="1.1" xmlns="http://www.w3.org/2000/svg" style="display: block;" viewBox="0 0 1200 1200" width="2205" height="2205">
<path transform="translate(0,0)" fill="rgb(255,255,255)" d="M 0 0 L 1200 0 L 1200 1200 L 0 1200 L 0 0 z"/>
<path transform="translate(0,0)" fill="rgb(0,0,0)" d="M 781.843 83.9009 C 791.003 83.7099 800.128 83.5017 809.284 83.9267 C 809.338 93.1854 808.955 102.676 809.58 111.902 C 800.132 111.332 790.822 111.366 781.362 111.627 C 781.444 120.763 781.208 130.022 781.679 139.138 C 772.45 139.297 763.127 139.713 753.91 139.183 C 753.682 157.852 753.671 176.523 753.877 195.193 L 781.545 195.052 C 781.525 185.863 781.434 176.67 781.877 167.489 L 809.236 167.058 C 809.248 148.549 809.356 130.04 809.561 111.531 C 828.085 111.507 846.608 111.611 865.131 111.844 L 865.109 139.235 L 837.643 139.206 C 837.393 148.525 837.225 157.846 837.138 167.168 C 855.565 167.267 874.749 168.53 893.089 167.33 L 893.009 334.767 L 865.13 334.83 L 865.119 362.595 C 874.404 362.695 883.724 362.974 893.007 362.87 L 893.057 390.618 L 865.21 390.843 C 865.187 409.445 865.564 428.141 865.007 446.73 C 846.828 445.923 827.642 445.878 809.473 446.852 C 809.446 455.987 809.307 465.138 809.46 474.271 C 837.274 474.253 865.209 474.784 893.008 474.147 L 893.061 446.344 C 902.371 446.372 911.697 446.281 921.005 446.435 L 921.079 529.977 L 948.964 530.234 L 949.003 558.088 L 976.917 558.071 L 1004.94 557.997 L 1032.86 558.056 L 1032.76 585.987 L 1004.91 586.045 C 1004.9 595.324 1004.63 604.679 1004.93 613.948 L 1032.74 614.018 L 1032.92 641.719 L 1088.39 641.945 L 1088.15 669.841 L 1060.86 669.965 C 1060.75 679.177 1060.5 688.414 1060.91 697.62 L 1116.1 697.92 L 1116.31 837.081 L 1088.42 837.385 L 1088.36 865.038 L 1116.27 865.18 C 1116.24 874.438 1116.27 883.696 1116.35 892.953 L 1088.18 893.127 C 1088.26 902.342 1088.78 911.772 1088.35 920.965 L 1116.28 921.152 L 1116.23 948.916 L 1060.68 948.964 C 1060.53 921.068 1060.2 893.12 1060.57 865.227 L 1032.85 865.092 L 1032.36 837.215 L 1004.84 837.162 L 1004.97 809.206 C 1014.14 809.181 1023.31 809.262 1032.47 809.124 C 1032.64 791.068 1034.42 771.261 1032.32 753.402 C 1041.85 753.575 1051.38 753.371 1060.91 753.503 C 1060.08 772.007 1061.46 790.621 1060.37 809.082 L 1088.25 809.11 C 1088.5 790.55 1088.51 771.987 1088.29 753.425 C 1079.1 753.611 1069.9 753.343 1060.71 753.468 C 1060.69 744.303 1060.52 735.112 1060.68 725.95 C 1042.08 725.595 1023.4 725.332 1004.8 725.768 L 1004.91 697.463 C 1014 697.762 1023.09 697.871 1032.18 697.789 C 1032.68 688.532 1032.86 679.261 1032.74 669.992 C 1014.15 669.712 995.546 669.724 976.951 670.029 L 976.978 697.64 L 948.997 697.772 L 948.923 670.018 C 939.641 669.949 930.332 669.739 921.055 670.029 C 921.044 679.28 920.878 688.558 921.032 697.807 L 893.079 697.789 L 892.961 642.007 L 865.077 641.955 L 865.044 614.102 L 837.136 613.936 L 837.397 585.909 L 865.097 585.972 L 865.189 530.037 L 892.938 530.079 L 892.994 502.46 C 874.443 502.086 855.887 502.03 837.334 502.291 L 837.12 558.047 L 781.362 558.045 C 780.998 548.77 781.566 539.323 781.766 530.036 L 809.093 530.034 L 809.111 502.732 C 800.062 502.245 790.947 502.377 781.885 502.316 C 781.399 511.551 781.438 520.822 781.357 530.068 L 753.69 530.096 C 752.477 511.72 753.636 492.57 753.716 474.112 C 743.581 474.178 733.528 474.189 723.407 473.511 C 705.706 460.661 690.691 462.873 670.009 463.005 L 670.046 446.3 C 688.489 446.963 707.148 446.306 725.601 446.059 C 725.683 436.96 725.686 427.861 725.61 418.763 C 697.766 419.233 669.84 418.637 641.982 418.779 L 641.953 390.896 L 586.02 390.782 L 586.035 362.852 L 558.049 362.913 L 558.169 418.237 C 576.674 419.123 595.401 418.671 613.935 418.772 L 614.005 446.624 C 623.139 445.831 632.637 446.547 641.836 446.398 L 641.67 463.037 L 586.159 463.12 L 586.006 446.777 C 567.359 446.452 548.708 446.435 530.06 446.726 L 530.024 463.018 L 502.718 462.909 C 502.038 457.314 502.262 451.755 502.406 446.136 C 493.103 446.308 483.723 446.689 474.424 446.444 C 474.375 455.649 474.114 464.909 474.367 474.108 C 465.265 474.231 455.808 474.913 446.742 474.381 C 446.457 483.625 446.277 492.782 446.683 502.025 L 463.05 502.554 L 463.057 530.079 L 446.49 530.082 C 446.446 539.41 446.254 548.767 446.476 558.092 C 452.008 558.124 457.557 558.066 463.084 558.288 L 462.98 585.968 C 438.977 586.008 414.915 585.726 390.919 586.147 C 390.853 595.395 390.655 604.666 390.892 613.911 L 463.098 613.972 L 463.056 641.78 L 446.491 641.947 C 446.387 651.2 446.092 660.495 446.268 669.745 L 390.807 670.001 C 390.646 697.408 389.024 725.944 390.786 753.244 L 362.878 753.427 L 362.868 613.95 L 334.955 614.066 L 334.917 753.347 L 307.009 753.42 L 307.05 641.924 L 278.997 641.893 L 279.044 613.947 L 251.239 613.875 C 250.92 604.594 251.145 595.288 251.249 586.004 L 279.079 586.054 L 279.023 558.077 L 223.207 558.057 L 223.181 530.042 C 223.009 511.485 222.995 492.927 223.138 474.37 C 223.015 465.043 223.113 455.714 223.432 446.391 C 232.68 446.302 241.935 446.425 251.183 446.468 C 251.023 437.04 251.099 427.597 251.067 418.167 C 269.422 419.703 288.549 418.762 306.984 418.45 L 307.107 362.761 L 362.913 362.808 L 362.812 334.88 L 334.994 334.928 L 334.995 306.958 L 362.857 306.917 C 362.79 288.302 362.832 269.687 362.982 251.073 L 390.746 251.041 L 390.848 222.985 L 474.344 223.019 C 474.544 213.715 474.564 204.408 474.402 195.103 C 492.959 195.508 511.574 195.154 530.136 195.083 C 530.205 185.84 530.216 176.598 530.17 167.355 C 539.491 167.133 548.815 167.097 558.138 167.248 C 557.992 139.489 558.036 111.729 558.267 83.9705 C 595.444 83.685 632.716 83.2806 669.884 83.9187 L 669.936 111.444 C 660.616 111.358 651.295 111.438 641.978 111.686 C 642 120.998 641.903 130.327 642.075 139.637 C 651.365 139.646 660.655 139.506 669.94 139.216 L 669.934 111.59 C 679.241 111.645 688.578 111.552 697.878 111.888 L 697.873 139.267 C 707.179 139.29 716.484 139.251 725.79 139.15 C 725.749 130.07 725.601 120.971 725.929 111.895 L 781.595 111.268 C 781.329 102.099 781.405 93.0625 781.843 83.9009 z"/>
<path transform="translate(0,0)" fill="rgb(255,255,255)" d="M 558.138 167.248 C 576.401 167.343 595.801 168.747 613.929 167.327 L 614.037 223.095 L 642.005 223.022 L 642.031 195.172 L 669.968 195.111 L 669.889 251.032 L 669.953 278.866 L 669.861 334.871 L 558.199 334.928 C 558.136 344.18 558.135 353.433 558.194 362.685 L 530.131 362.872 L 530.147 390.766 C 511.703 390.79 492.843 391.597 474.465 390.142 C 473.945 381.114 474.261 371.989 474.337 362.947 L 502.27 362.783 C 502.135 344.155 502.127 325.526 502.246 306.897 L 502.258 278.918 C 501.893 269.708 502.183 260.422 502.247 251.203 L 530.203 250.974 C 529.855 241.737 530.153 232.42 530.217 223.174 L 558.059 222.999 L 558.138 167.248 z"/>
<path transform="translate(0,0)" fill="rgb(0,0,0)" d="M 502.247 251.203 L 530.203 250.974 L 558.037 251.104 L 558.055 306.897 C 539.508 306.94 520.771 307.557 502.246 306.897 L 502.258 278.918 C 501.893 269.708 502.183 260.422 502.247 251.203 z"/>
<path transform="translate(0,0)" fill="rgb(255,255,255)" d="M 502.247 251.203 L 530.203 250.974 L 530.092 278.917 L 502.258 278.918 C 501.893 269.708 502.183 260.422 502.247 251.203 z"/>
<path transform="translate(0,0)" fill="rgb(0,0,0)" d="M 641.964 250.995 L 669.889 251.032 L 669.953 278.866 L 641.923 279.034 L 641.964 250.995 z"/>
<path transform="translate(0,0)" fill="rgb(0,0,0)" d="M 614.009 278.958 L 641.923 279.034 L 641.914 306.923 L 613.973 306.939 L 614.009 278.958 z"/>
<path transform="translate(0,0)" fill="rgb(0,0,0)" d="M 586.141 251.042 L 613.953 251.083 L 614.009 278.958 L 586.065 279.007 L 586.141 251.042 z"/>
<path transform="translate(0,0)" fill="rgb(255,255,255)" d="M 697.899 279.022 L 725.886 278.914 L 725.77 306.933 L 753.611 307.023 C 753.247 316.268 754.081 325.822 753.222 334.972 L 781.266 334.852 C 781.444 325.571 781.472 316.26 781.847 306.985 L 809.451 306.909 C 809.305 316.259 809.239 325.61 809.251 334.962 L 837.349 334.841 L 836.983 362.824 L 781.777 362.848 C 781.607 372.201 781.316 381.573 781.766 390.922 L 809.18 390.874 L 809.197 418.668 C 790.694 418.24 772.122 419.104 753.644 418.24 C 753.614 409.159 753.193 399.902 753.619 390.842 C 735.027 390.775 716.367 391.049 697.786 390.528 C 697.782 381.331 697.654 372.117 697.795 362.922 L 669.972 362.737 L 669.861 334.871 L 669.953 278.866 L 697.899 279.022 z"/>
<path transform="translate(0,0)" fill="rgb(0,0,0)" d="M 697.899 279.022 L 725.886 278.914 L 725.77 306.933 L 725.809 334.914 L 669.861 334.871 L 669.953 278.866 L 697.899 279.022 z"/>
<path transform="translate(0,0)" fill="rgb(255,255,255)" d="M 697.899 279.022 L 725.886 278.914 L 725.77 306.933 L 697.835 306.885 L 697.899 279.022 z"/>
<path transform="translate(0,0)" fill="rgb(255,255,255)" d="M 223.138 474.37 C 232.426 474.708 241.789 474.292 251.082 474.109 L 279.043 474.366 C 288.361 474.449 297.68 474.362 306.995 474.102 L 307 530.204 C 306.984 548.772 306.64 567.399 306.976 585.96 L 279.079 586.054 L 279.023 558.077 L 223.207 558.057 L 223.181 530.042 C 223.009 511.485 222.995 492.927 223.138 474.37 z"/>
<path transform="translate(0,0)" fill="rgb(0,0,0)" d="M 223.181 530.042 C 251.06 530.056 279.147 529.366 307 530.204 C 306.984 548.772 306.64 567.399 306.976 585.96 L 279.079 586.054 L 279.023 558.077 L 223.207 558.057 L 223.181 530.042 z"/>
<path transform="translate(0,0)" fill="rgb(0,0,0)" d="M 251.082 474.109 L 279.043 474.366 L 279.034 502.082 L 251.112 502.273 L 251.082 474.109 z"/>
<path transform="translate(0,0)" fill="rgb(0,0,0)" d="M 307.107 362.761 L 362.913 362.808 L 362.887 390.762 L 335.078 390.881 C 334.936 399.985 334.686 409.105 334.985 418.207 L 306.899 418.917 C 306.92 437.285 306.537 455.746 306.995 474.102 C 297.68 474.362 288.361 474.449 279.043 474.366 L 251.082 474.109 C 241.789 474.292 232.426 474.708 223.138 474.37 C 223.015 465.043 223.113 455.714 223.432 446.391 C 232.68 446.302 241.935 446.425 251.183 446.468 C 251.023 437.04 251.099 427.597 251.067 418.167 C 269.422 419.703 288.549 418.762 306.984 418.45 L 307.107 362.761 z"/>
<path transform="translate(0,0)" fill="rgb(255,255,255)" d="M 251.027 446.928 C 260.354 446.527 269.69 446.332 279.027 446.344 L 279.043 474.366 L 251.082 474.109 L 251.027 446.928 z"/>
<path transform="translate(0,0)" fill="rgb(255,255,255)" d="M 362.913 362.808 L 446.615 362.888 C 446.456 372.146 446.402 381.363 446.68 390.619 L 418.393 390.907 C 419.458 409.185 418.804 427.971 418.526 446.286 C 409.328 446.313 400.101 446.487 390.906 446.267 C 390.787 436.973 390.455 427.615 390.906 418.33 C 373.006 419.536 352.855 419.69 334.985 418.207 C 334.686 409.105 334.936 399.985 335.078 390.881 L 362.887 390.762 L 362.913 362.808 z"/>
<path transform="translate(0,0)" fill="rgb(0,0,0)" d="M 669.968 195.111 L 697.858 195.165 C 707.125 195.261 716.392 195.304 725.66 195.292 L 725.759 223.159 L 725.886 278.914 L 697.899 279.022 L 669.953 278.866 L 669.889 251.032 L 669.968 195.111 z"/>
<path transform="translate(0,0)" fill="rgb(255,255,255)" d="M 697.858 195.165 C 707.125 195.261 716.392 195.304 725.66 195.292 L 725.759 223.159 C 716.532 222.766 707.159 223.139 697.917 223.177 L 697.858 195.165 z"/>
<path transform="translate(0,0)" fill="rgb(255,255,255)" d="M 669.889 251.032 L 697.634 251.088 L 697.899 279.022 L 669.953 278.866 L 669.889 251.032 z"/>
<path transform="translate(0,0)" fill="rgb(255,255,255)" d="M 837.54 251.144 L 865.034 251.212 L 865.13 334.83 C 855.826 334.793 846.344 335.123 837.07 334.444 L 837.099 307.041 L 809.238 306.644 L 809.279 279.087 L 837.364 278.948 C 837.339 269.69 837.15 260.394 837.54 251.144 z"/>
<path transform="translate(0,0)" fill="rgb(255,255,255)" d="M 390.746 251.041 L 418.594 251.062 C 418.595 269.642 418.124 288.353 418.76 306.916 L 446.674 306.978 C 446.631 315.988 446.429 325.025 446.557 334.032 C 440.106 336.852 399.921 334.812 390.832 334.722 C 390.688 306.894 389.948 278.852 390.746 251.041 z"/>
<path transform="translate(0,0)" fill="rgb(255,255,255)" d="M 334.985 418.207 C 334.994 427.712 334.894 437.23 335.032 446.733 C 344.272 446.065 353.608 446.474 362.866 446.649 L 362.831 474.235 C 344.25 474.291 325.561 474.763 306.995 474.102 C 306.537 455.746 306.92 437.285 306.899 418.917 L 334.985 418.207 z"/>
<path transform="translate(0,0)" fill="rgb(255,255,255)" d="M 976.917 558.071 L 1004.94 557.997 L 1032.86 558.056 L 1032.76 585.987 L 1004.91 586.045 L 976.902 585.875 L 976.917 558.071 z"/>
<path transform="translate(0,0)" fill="rgb(0,0,0)" d="M 1004.94 557.997 L 1032.86 558.056 L 1032.76 585.987 L 1004.91 586.045 L 1004.94 557.997 z"/>
<path transform="translate(0,0)" fill="rgb(255,255,255)" d="M 307 530.204 L 334.963 530.195 L 334.792 586.034 L 306.976 585.96 C 306.64 567.399 306.984 548.772 307 530.204 z"/>
<path transform="translate(0,0)" fill="rgb(255,255,255)" d="M 949.053 614.028 L 1004.93 613.948 L 1004.72 641.933 L 948.935 641.819 L 949.053 614.028 z"/>
<path transform="translate(0,0)" fill="rgb(255,255,255)" d="M 949.003 558.088 L 948.813 585.996 L 893.11 585.959 L 893.232 558.11 L 949.003 558.088 z"/>
<path transform="translate(0,0)" fill="rgb(255,255,255)" d="M 279.079 586.054 L 306.976 585.96 L 306.888 613.895 L 279.044 613.947 L 251.239 613.875 C 250.92 604.594 251.145 595.288 251.249 586.004 L 279.079 586.054 z"/>
<path transform="translate(0,0)" fill="rgb(0,0,0)" d="M 251.249 586.004 L 279.079 586.054 C 279.056 595.332 278.786 604.677 279.044 613.947 L 251.239 613.875 C 250.92 604.594 251.145 595.288 251.249 586.004 z"/>
<path transform="translate(0,0)" fill="rgb(255,255,255)" d="M 725.759 223.159 L 753.565 223.133 L 753.21 278.94 L 725.886 278.914 L 725.759 223.159 z"/>
<path transform="translate(0,0)" fill="rgb(255,255,255)" d="M 474.188 279.071 L 502.258 278.918 L 502.246 306.897 L 474.308 306.853 L 474.188 279.071 z"/>
<path transform="translate(0,0)" fill="rgb(255,255,255)" d="M 670.031 167.399 C 679.253 167.46 688.476 167.453 697.697 167.379 L 697.858 195.165 L 669.968 195.111 C 669.979 185.879 669.867 176.629 670.031 167.399 z"/>
<path transform="translate(0,0)" fill="rgb(255,255,255)" d="M 502.277 418.938 C 511.606 418.701 520.939 418.619 530.271 418.694 C 530.1 427.879 530.041 437.066 530.093 446.252 L 502.406 446.136 C 502.209 437.072 502.166 428.004 502.277 418.938 z"/>
<path transform="translate(0,0)" fill="rgb(255,255,255)" d="M 753.908 446.473 C 763.012 446.481 772.135 446.379 781.229 446.84 C 782.172 455.71 781.32 465.191 781.066 474.119 L 753.716 474.112 C 753.601 464.898 753.665 455.684 753.908 446.473 z"/>
<path transform="translate(0,0)" fill="rgb(255,255,255)" d="M 446.563 251.168 L 474.681 251.041 C 474.444 260.383 474.28 269.726 474.188 279.071 L 446.858 278.969 C 446.368 269.665 446.338 260.48 446.563 251.168 z"/>
<path transform="translate(0,0)" fill="rgb(255,255,255)" d="M 362.886 502.234 L 390.839 502.213 L 390.706 558.077 L 362.843 557.939 C 362.695 539.371 362.709 520.802 362.886 502.234 z"/>
<path transform="translate(0,0)" fill="rgb(255,255,255)" d="M 809.81 195.063 L 865.019 195.244 L 865.209 223.065 L 809.267 223.015 C 809.171 213.694 809.352 204.373 809.81 195.063 z"/>
<path transform="translate(0,0)" fill="rgb(255,255,255)" d="M 446.298 390.822 L 474.633 390.575 L 474.171 418.556 C 464.925 418.786 455.695 418.536 446.452 418.315 C 446.149 409.171 446.322 399.973 446.298 390.822 z"/>
<path transform="translate(0,0)" fill="rgb(255,255,255)" d="M 586.107 111.626 C 595.396 111.492 604.651 111.73 613.935 112.018 L 613.988 139.282 L 586.094 139.643 L 586.107 111.626 z"/>
<path transform="translate(0,0)" fill="rgb(255,255,255)" d="M 781.884 251.073 L 809.241 251.105 C 809.31 260.16 810.157 270.043 808.83 278.978 L 781.345 278.922 L 781.884 251.073 z"/>
<path transform="translate(0,0)" fill="rgb(0,0,0)" d="M 865.202 837.125 L 892.999 837.247 L 893.057 865.027 L 1032.92 865.047 C 1032.72 874.374 1032.69 883.704 1032.84 893.031 L 1004.91 893.064 C 1004.93 902.361 1004.83 911.675 1005.01 920.97 L 1032.66 921.02 C 1032.66 930.3 1032.33 939.698 1032.71 948.963 L 1004.92 948.943 L 1004.93 1004.69 C 986.297 1004.86 967.665 1004.93 949.033 1004.89 L 948.941 1032.8 L 921.04 1032.78 L 920.987 1005.03 C 902.41 1004.81 883.832 1004.75 865.254 1004.83 C 865.115 1023.46 865.09 1042.1 865.181 1060.74 C 883.823 1060.38 902.471 1060.42 921.113 1060.84 L 921.037 1088.51 C 939.66 1088.45 958.321 1088.13 976.94 1088.36 L 976.913 1116.09 C 948.997 1116.63 920.989 1116.21 893.063 1116.23 L 892.99 1088.54 C 883.783 1088.22 874.541 1088.31 865.328 1088.25 C 865.033 1097.53 865.154 1106.86 865.082 1116.14 L 641.962 1116.12 L 642.106 1088.16 C 651.245 1088.8 660.696 1088.28 669.869 1088.24 L 669.826 1060.74 C 660.52 1060.64 651.214 1060.6 641.907 1060.6 L 642.083 1032.34 C 651.11 1033.3 660.759 1032.69 669.863 1032.73 L 669.824 1004.77 L 641.994 1004.99 C 641.934 995.579 641.978 986.171 642.128 976.766 C 679.132 978.023 716.565 976.843 753.615 976.839 C 753.114 967.595 753.637 958.171 753.803 948.912 L 781.383 949.02 C 781.564 958.313 781.569 967.607 781.398 976.9 L 809.144 976.836 C 809.083 958.197 809.47 939.536 809.659 920.897 L 837.011 921.029 L 837.245 893.019 L 865.056 892.971 L 865.202 837.125 z"/>
<path transform="translate(0,0)" fill="rgb(255,255,255)" d="M 893.172 893.094 L 976.942 893.154 L 976.828 976.857 L 893.096 976.882 L 893.172 893.094 z"/>
<path transform="translate(0,0)" fill="rgb(0,0,0)" d="M 921.056 920.945 L 949.036 921.108 L 949.037 948.829 L 921.031 948.976 L 921.056 920.945 z"/>
<path transform="translate(0,0)" fill="rgb(255,255,255)" d="M 697.907 1004.79 C 734.744 1006.36 772.297 1004.71 809.211 1004.97 L 809.253 1032.64 C 790.792 1032.9 772.292 1032.65 753.827 1032.65 C 744.538 1032.73 735.219 1032.95 725.941 1032.4 C 725.553 1050.91 725.825 1069.48 725.818 1087.99 C 716.528 1088.34 707.209 1088.33 697.913 1088.46 L 697.907 1004.79 z"/>
<path transform="translate(0,0)" fill="rgb(255,255,255)" d="M 809.351 1032.81 C 818.596 1032.72 827.843 1032.76 837.087 1032.94 C 837.354 1051.29 837.125 1069.68 837.12 1088.04 C 818.291 1088.78 799.346 1088.39 780.5 1088.38 L 753.734 1088.28 C 753.404 1078.95 753.685 1069.58 753.789 1060.25 C 771.964 1061.06 791.069 1061.14 809.233 1060.16 L 809.351 1032.81 z"/>
<path transform="translate(0,0)" fill="rgb(255,255,255)" d="M 837.317 948.888 L 865.071 949.044 L 864.953 976.851 L 837.135 976.861 C 837.112 967.537 837.172 958.212 837.317 948.888 z"/>
<path transform="translate(0,0)" fill="rgb(161,70,135)" d="M 586.763 479.61 C 653.765 472.07 714.163 520.351 721.566 587.368 C 728.97 654.386 680.566 714.685 613.534 721.952 C 546.694 729.199 486.605 680.964 479.223 614.139 C 471.841 547.314 519.953 487.127 586.763 479.61 z"/>
<path transform="translate(0,0)" fill="rgb(255,255,255)" d="M 578.969 672.15 C 576.83 671.964 574.947 671.481 572.947 670.724 C 553.832 663.54 538.504 648.824 530.548 630.018 C 523.041 612.669 522.814 590.987 529.779 573.432 C 537.163 554.735 551.809 539.829 570.373 532.116 C 588.402 524.282 608.839 524.105 627.001 531.625 C 646.284 539.627 659.979 555.152 667.77 574.221 C 675.08 591.815 674.864 611.636 667.173 629.066 C 657.192 652.206 640.593 664.087 617.998 673.204 C 617.93 666.003 617.919 658.844 617.158 651.674 C 616.914 659.092 616.885 666.516 617.072 673.936 C 607.455 674.859 587.44 677.34 578.969 672.15 z"/>
<path transform="translate(0,0)" fill="rgb(0,0,0)" d="M 559.155 555.339 C 564.406 557.488 569.961 560.127 575.52 561.298 C 591.757 564.718 618.078 563.657 633.21 557.282 C 634.667 556.668 636.074 556.009 637.47 555.265 C 640.703 574.374 652.417 602.672 640.37 620.113 C 634.865 628.081 625.467 631.474 616.283 632.984 C 614.894 633.213 614.98 633.383 614.024 634.312 C 615.867 640.281 617.236 645.344 617.158 651.674 C 616.914 659.092 616.885 666.516 617.072 673.936 C 607.455 674.859 587.44 677.34 578.969 672.15 C 580.407 666.861 580.249 660.962 580.507 655.502 C 575.685 655.671 569.961 655.568 565.291 654.373 C 560.361 653.113 557.536 650.642 555.06 646.285 C 551.121 639.499 545.756 633.172 541.162 626.785 C 542.467 627.377 543.765 627.987 545.054 628.614 C 551.092 631.55 557.958 635.56 560.271 642.275 C 563.541 644.837 568.094 647.898 572.494 647.425 C 575.008 647.154 578.094 645.229 579.541 643.16 C 581.49 640.374 582.945 636.835 584.42 633.768 C 573.5 631.606 561.836 629.024 555.278 619.021 C 550.17 611.229 549.729 599.953 551.709 591.102 C 553.522 582.998 557.189 575.73 557.32 567.3 C 557.381 563.312 558.166 559.193 559.155 555.339 z"/>
<path transform="translate(0,0)" fill="rgb(0,0,0)" d="M 277.202 83.6272 L 278.519 84.2853 C 280.807 96.3926 278.974 125.957 278.978 140.024 L 279.032 278.91 L 85.9957 279.023 L 85.1476 278.708 C 84.7392 278.16 84.2097 277.683 83.9225 277.062 C 82.5039 273.996 83.6571 100.748 83.9117 83.9 C 148.311 82.9987 212.793 83.6282 277.202 83.6272 z"/>
<path transform="translate(0,0)" fill="rgb(255,255,255)" d="M 120.804 111.456 C 164.119 111.696 207.763 110.159 251.023 111.906 C 251.026 123.199 252.209 246.741 250.816 249.408 C 250.519 249.978 249.952 250.361 249.52 250.837 L 244.25 251.033 L 111.695 250.934 C 110.277 223.25 111.503 194.913 111.506 167.163 C 111.509 149.556 109.651 130.202 111.972 112.866 C 114.378 111.096 117.914 111.525 120.804 111.456 z"/>
<path transform="translate(0,0)" fill="rgb(0,0,0)" d="M 139.677 139.477 C 167.347 140.402 195.365 139.387 223.062 139.238 C 223.191 166.816 224.956 195.537 222.806 222.994 C 194.994 223.206 167.181 223.233 139.369 223.076 C 140.427 195.234 138.742 167.329 139.677 139.477 z"/>
<path transform="translate(0,0)" fill="rgb(0,0,0)" d="M 921.262 83.538 C 943.679 84.6061 966.445 83.7469 988.909 83.7503 L 1116.22 83.7929 C 1117.46 148.797 1116.17 213.931 1116.65 278.962 L 921.014 279.035 C 920.917 213.904 920.072 148.652 921.262 83.538 z"/>
<path transform="translate(0,0)" fill="rgb(255,255,255)" d="M 955.67 111.4 C 999.851 111.868 1044.1 110.803 1088.26 111.901 C 1088.8 126.083 1089.78 247.633 1087.41 250.786 L 1084.25 251.032 L 949.012 250.976 L 948.945 161.945 C 948.934 145.795 948.17 129.215 949.375 113.119 C 951.476 111.369 953.057 111.623 955.67 111.4 z"/>
<path transform="translate(0,0)" fill="rgb(0,0,0)" d="M 976.988 139.366 C 1004.81 139.601 1032.63 139.634 1060.44 139.463 C 1061.22 167.272 1060.72 195.193 1060.67 223.016 C 1032.75 223.248 1004.82 223.276 976.891 223.099 L 976.988 139.366 z"/>
<path transform="translate(0,0)" fill="rgb(0,0,0)" d="M 83.97 920.972 L 278.916 920.946 L 278.947 1116.18 C 214.039 1116.81 148.833 1117.14 83.931 1116.14 C 83.2658 1092.59 83.8033 1068.86 83.796 1045.29 L 83.97 920.972 z"/>
<path transform="translate(0,0)" fill="rgb(255,255,255)" d="M 111.78 949.068 L 251.071 948.988 L 251.052 1047.04 C 251.049 1058.44 252.718 1077.06 250.569 1087.68 L 247.75 1088.51 C 202.449 1088.35 157.07 1089.2 111.784 1088.28 C 111.043 1068.89 111.573 1049.31 111.551 1029.9 C 111.347 1002.96 111.424 976.012 111.78 949.068 z"/>
<path transform="translate(0,0)" fill="rgb(0,0,0)" d="M 139.661 976.858 L 223.025 976.931 C 223.182 988.442 225.065 1054.93 221.752 1060.5 C 194.446 1061.04 167.111 1060.28 139.799 1060.56 C 138.076 1032.96 139.509 1004.53 139.661 976.858 z"/>
<path transform="translate(0,0)" fill="rgb(0,0,0)" d="M 949.081 306.965 L 1004.85 307.065 L 1004.95 390.684 L 1032.72 390.89 L 1032.83 446.116 C 1042.09 446.322 1051.35 446.378 1060.61 446.286 L 1060.78 362.912 C 1079.36 362.746 1097.94 362.749 1116.53 362.919 L 1116.12 390.72 L 1088.75 390.725 C 1088.68 400.014 1088.47 409.328 1088.64 418.615 C 1097.99 418.028 1107.24 418.974 1116.56 418.722 C 1116.36 428.016 1116.25 437.312 1116.21 446.608 C 1106.97 446.126 1097.69 446.272 1088.44 446.273 C 1088.43 455.544 1088.58 464.848 1088.32 474.113 L 1116.16 474.278 L 1116.3 557.988 L 1088.43 558.008 C 1088.39 548.758 1088.22 539.493 1088.31 530.245 L 1060.77 530.106 C 1060.6 539.4 1060.54 548.696 1060.57 557.993 L 1032.86 558.056 L 1004.94 557.997 L 976.917 558.071 L 949.003 558.088 L 948.964 530.234 L 921.079 529.977 L 921.005 446.435 L 921.042 334.904 L 948.831 334.91 L 949.081 306.965 z"/>
<path transform="translate(0,0)" fill="rgb(255,255,255)" d="M 949.035 418.743 C 967.576 418.551 986.119 418.603 1004.66 418.897 L 1004.87 502.191 L 1004.94 557.997 L 976.917 558.071 L 949.003 558.088 L 948.964 530.234 L 921.079 529.977 L 921.005 446.435 C 930.343 446.261 939.683 446.204 949.022 446.263 L 949.035 418.743 z"/>
<path transform="translate(0,0)" fill="rgb(0,0,0)" d="M 1004.87 502.191 L 1004.94 557.997 L 976.917 558.071 L 949.003 558.088 L 948.964 530.234 L 948.988 502.225 L 1004.87 502.191 z"/>
<path transform="translate(0,0)" fill="rgb(255,255,255)" d="M 948.964 530.234 L 976.846 530.178 L 976.917 558.071 L 949.003 558.088 L 948.964 530.234 z"/>
<path transform="translate(0,0)" fill="rgb(0,0,0)" d="M 949.022 446.263 C 958.212 446.332 967.747 446.948 976.898 446.349 L 976.849 474.42 C 967.565 474.216 958.279 474.166 948.994 474.27 L 949.022 446.263 z"/>
<path transform="translate(0,0)" fill="rgb(255,255,255)" d="M 1032.92 474.35 C 1042.2 474.333 1051.48 474.238 1060.74 474.814 C 1060.67 493.232 1060.35 511.693 1060.77 530.106 C 1060.6 539.4 1060.54 548.696 1060.57 557.993 L 1032.86 558.056 L 1004.94 557.997 L 1004.87 502.191 L 1032.85 502.039 C 1032.81 492.809 1032.83 483.579 1032.92 474.35 z"/>
<path transform="translate(0,0)" fill="rgb(0,0,0)" d="M 1060.77 530.106 C 1060.6 539.4 1060.54 548.696 1060.57 557.993 L 1032.86 558.056 L 1032.75 530.067 L 1060.77 530.106 z"/>
<path transform="translate(0,0)" fill="rgb(255,255,255)" d="M 949.066 362.952 L 976.816 362.995 C 976.838 372.284 976.799 381.574 976.697 390.863 L 949.025 390.603 L 949.066 362.952 z"/>
<path transform="translate(0,0)" fill="rgb(0,0,0)" d="M 111.588 362.612 C 167.351 363.623 223.225 362.598 279.003 362.867 L 279.042 390.706 L 251.03 390.85 L 251.067 418.167 C 251.099 427.597 251.023 437.04 251.183 446.468 C 241.935 446.425 232.68 446.302 223.432 446.391 C 223.113 455.714 223.015 465.043 223.138 474.37 C 222.995 492.927 223.009 511.485 223.181 530.042 L 195.168 530.046 L 195.103 502.177 C 176.625 502.763 157.957 502.177 139.453 502.27 C 139.261 511.529 139.221 520.791 139.334 530.051 L 83.9256 530.064 C 83.8718 520.796 83.8644 511.527 83.9034 502.259 L 111.719 502.073 C 111.482 492.872 111.668 483.621 111.66 474.414 C 102.4 474.173 93.1347 474.215 83.8775 474.54 C 82.9414 446.771 83.4064 418.595 83.9713 390.809 L 111.757 390.744 C 111.341 381.398 111.58 371.97 111.588 362.612 z"/>
<path transform="translate(0,0)" fill="rgb(255,255,255)" d="M 251.067 418.167 C 251.099 427.597 251.023 437.04 251.183 446.468 C 241.935 446.425 232.68 446.302 223.432 446.391 C 223.113 455.714 223.015 465.043 223.138 474.37 L 195.453 474.202 C 194.873 455.769 195.115 437.28 195.24 418.841 C 213.854 418.484 232.457 418.995 251.067 418.167 z"/>
<path transform="translate(0,0)" fill="rgb(255,255,255)" d="M 111.757 390.744 L 139.621 390.771 C 139.382 400.095 139.422 409.423 139.74 418.745 L 167.274 418.245 L 167.342 474.197 L 139.318 474.106 C 139.421 455.504 139.426 436.901 139.334 418.299 C 130.163 418.518 120.97 418.483 111.796 418.568 C 111.378 409.257 111.46 400.058 111.757 390.744 z"/>
<path transform="translate(0,0)" fill="rgb(255,255,255)" d="M 167.605 390.915 C 176.791 390.583 185.986 390.564 195.174 390.859 C 195.185 400.042 195.094 409.239 195.226 418.421 C 186.025 418.517 176.42 419.162 167.274 418.245 C 167.17 409.115 167.082 400.035 167.605 390.915 z"/>
<path transform="translate(0,0)" fill="rgb(0,0,0)" d="M 334.989 865.08 L 362.973 865.207 C 362.782 874.46 362.751 883.716 362.881 892.97 L 390.848 893.037 C 390.691 902.333 390.55 911.611 390.769 920.907 L 418.751 921.006 C 418.561 948.799 417.666 976.986 418.779 1004.74 L 446.272 1004.85 C 446.347 1022.85 444.741 1042.42 446.616 1060.22 C 418.725 1061.07 390.69 1059.55 362.857 1060.76 L 362.991 1032.84 C 353.645 1032.68 344.298 1032.69 334.952 1032.86 C 334.906 1051.3 334.234 1069.95 334.886 1088.36 C 325.574 1088.46 316.275 1088.21 306.968 1088.68 L 306.939 893.104 L 334.859 892.971 L 334.989 865.08 z"/>
<path transform="translate(0,0)" fill="rgb(255,255,255)" d="M 334.865 949.093 L 362.874 948.988 L 362.799 976.878 L 334.969 976.898 L 334.865 949.093 z"/>
<path transform="translate(0,0)" fill="rgb(255,255,255)" d="M 362.799 976.878 L 390.628 976.922 L 390.868 1004.86 L 362.849 1004.77 C 362.772 995.493 362.472 986.15 362.799 976.878 z"/>
<path transform="translate(0,0)" fill="rgb(0,0,0)" d="M 195.33 725.598 L 251.01 725.635 L 251.079 753.664 C 269.175 752.035 288.696 753.506 306.937 753.331 L 306.982 781.239 C 316.269 780.911 325.674 781.252 334.973 781.284 C 334.707 790.614 334.679 799.95 334.889 809.282 L 306.932 809.392 C 306.909 837.287 306.619 865.213 306.939 893.104 L 223.18 893.021 L 223.154 865.22 L 195.329 865.099 L 195.233 809.316 L 223.094 809.085 L 223.124 753.639 C 213.792 753.567 204.459 753.543 195.126 753.568 C 194.965 744.254 195.218 734.913 195.33 725.598 z"/>
<path transform="translate(0,0)" fill="rgb(255,255,255)" d="M 251.07 837.287 L 279.01 837.117 L 278.992 865.035 L 251.123 865.065 L 251.07 837.287 z"/>
<path transform="translate(0,0)" fill="rgb(255,255,255)" d="M 251.596 781.51 C 260.756 781.249 269.905 781.482 279.064 781.674 L 278.963 809.169 L 251.07 809.091 C 251.059 800.111 250.134 790.344 251.596 781.51 z"/>
<path transform="translate(0,0)" fill="rgb(0,0,0)" d="M 921.032 697.807 C 930.337 697.81 939.704 697.588 949 697.917 L 949.004 725.272 C 958.274 725.436 967.588 725.806 976.857 725.738 L 976.934 781.193 C 967.758 781.325 958.141 782.078 949.011 781.444 L 948.966 809.205 L 837.319 809.307 C 837.023 837.1 836.303 865.258 837.245 893.019 L 809.543 893.164 C 809.18 902.425 809.322 911.739 809.279 921.008 L 781.655 921.025 C 781.276 902.371 781.327 883.711 781.808 865.059 L 809.176 864.994 L 809.382 781.22 C 846.505 782.095 883.82 781.295 920.964 781.273 L 920.95 753.398 C 902.905 755.348 883.366 753.108 865.086 753.689 L 865.035 725.91 L 837.199 725.744 L 837.25 697.684 L 893.1 697.871 L 893.052 725.537 L 920.897 725.706 C 920.945 716.413 921.133 707.098 921.032 697.807 z"/>
<path transform="translate(0,0)" fill="rgb(0,0,0)" d="M 167.655 585.981 L 195.162 586.069 L 195.134 613.938 L 223.158 614.005 L 223.141 669.887 L 195.161 670.025 L 195.085 725.619 L 167.557 725.749 C 167.082 716.524 167.369 707.171 167.362 697.929 C 158.01 697.686 148.689 697.838 139.338 698.035 L 139.181 725.687 C 122.783 725.521 106.141 726.525 89.7823 725.728 C 87.1895 725.601 85.7817 725.971 83.9608 723.968 C 83.8009 715.25 83.9909 706.504 84.0354 697.784 L 111.539 697.785 C 111.156 679.218 111.621 660.562 111.711 641.987 L 83.8862 641.961 C 83.8593 632.618 83.899 623.275 84.0053 613.933 L 139.641 613.976 C 139.31 632.562 139.437 651.174 139.372 669.763 L 167.312 669.738 C 167.172 641.818 167.287 613.899 167.655 585.981 z"/>
<path transform="translate(0,0)" fill="rgb(0,0,0)" d="M 697.967 736.991 C 701.523 736.24 705.047 735.348 708.532 734.317 C 714.056 732.706 723.174 730.463 725.921 725.466 C 725.531 732.633 723.645 747.577 726.679 753.922 L 725.952 754.203 C 725.691 763.229 725.628 772.259 725.763 781.288 C 707.181 781.269 688.54 780.976 669.973 781.764 C 669.834 790.889 669.994 800.031 670.038 809.157 L 697.957 809.277 L 697.834 837.034 L 725.589 837.303 L 725.779 865.011 L 669.901 865.061 L 669.777 837.22 L 586.042 837.134 L 586.214 809.349 C 604.761 808.901 623.381 809.172 641.937 809.11 L 641.886 781.609 C 632.614 781.188 623.309 781.334 614.028 781.355 L 613.949 754.046 L 612.829 754.035 C 615.018 750.036 613.979 741.724 613.905 737.113 C 632.26 736.308 651.713 736.185 670.065 737.107 L 697.967 736.991 z"/>
<path transform="translate(0,0)" fill="rgb(214,213,215)" d="M 613.905 737.113 C 632.26 736.308 651.713 736.185 670.065 737.107 C 669.897 742.66 669.602 748.241 669.856 753.794 C 654.778 752.765 628.768 752.489 613.949 754.046 L 612.829 754.035 C 615.018 750.036 613.979 741.724 613.905 737.113 z"/>
<path transform="translate(0,0)" fill="rgb(214,213,215)" d="M 697.967 736.991 C 701.523 736.24 705.047 735.348 708.532 734.317 C 714.056 732.706 723.174 730.463 725.921 725.466 C 725.531 732.633 723.645 747.577 726.679 753.922 L 725.952 754.203 C 716.893 752.685 706.503 753.484 697.314 753.748 C 697.893 748.21 697.83 742.556 697.967 736.991 z"/>
<path transform="translate(0,0)" fill="rgb(0,0,0)" d="M 753.681 697.626 L 781.278 697.81 C 781.687 753.581 781.725 809.353 781.391 865.124 L 753.678 865.017 C 753.661 846.478 753.799 827.925 753.579 809.389 C 744.148 809.37 734.717 809.284 725.287 809.133 C 725.707 799.829 725.905 790.6 725.763 781.288 C 725.628 772.259 725.691 763.229 725.952 754.203 L 726.679 753.922 C 723.645 747.577 725.531 732.633 725.921 725.466 C 735.042 724.753 744.438 725.419 753.586 725.646 C 753.765 716.307 753.797 706.966 753.681 697.626 z"/>
<path transform="translate(0,0)" fill="rgb(255,255,255)" d="M 726.679 753.922 C 735.56 753.384 744.365 753.614 753.252 753.867 C 753.324 762.822 752.835 772.177 753.646 781.075 C 744.354 781.157 735.055 781.327 725.763 781.288 C 725.628 772.259 725.691 763.229 725.952 754.203 L 726.679 753.922 z"/>
<path transform="translate(0,0)" fill="rgb(0,0,0)" d="M 390.786 753.244 C 400.092 753.361 409.399 753.385 418.705 753.316 C 418.528 771.864 417.798 790.661 418.509 809.177 C 409.322 809.23 400.091 809.103 390.912 809.457 C 390.852 818.698 390.637 827.97 390.888 837.207 L 418.692 837.217 C 418.408 855.571 417.192 874.799 418.699 893.042 L 390.803 893.069 L 390.756 865.047 L 362.829 865.09 L 362.889 837.142 L 334.932 837.126 L 334.889 809.282 C 344.169 809.457 353.509 809.115 362.792 808.996 L 362.937 781.634 C 372.079 780.961 381.436 781.274 390.609 781.219 C 390.749 771.895 390.808 762.57 390.786 753.244 z"/>
<path transform="translate(0,0)" fill="rgb(0,0,0)" d="M 502.441 1004.84 L 530.069 1004.88 L 530.176 1060.56 L 558.04 1060.84 L 557.993 1116.1 C 538.611 1116.36 519.201 1116.16 499.816 1116.17 L 474.254 1116.17 C 474.343 1106.85 474.509 1097.54 474.75 1088.23 C 483.697 1088.98 493.213 1088.19 502.215 1088.05 L 502.099 1060.72 C 492.852 1060.59 483.585 1060.35 474.344 1060.78 C 474.155 1051.44 474.382 1042.17 474.747 1032.83 L 502.148 1032.58 C 502.149 1023.33 502.341 1014.08 502.441 1004.84 z"/>
<path transform="translate(0,0)" fill="rgb(0,0,0)" d="M 362.959 83.8261 L 446.302 83.7338 C 446.337 93.0134 446.439 102.293 446.607 111.571 C 437.396 111.186 427.982 111.707 418.753 111.822 C 417.612 130.006 418.439 148.744 418.501 166.996 C 400.419 168.543 381.144 167.257 362.916 167.33 L 362.947 139.418 C 353.703 139.951 344.166 139.394 334.893 139.315 L 334.936 111.562 C 344.222 111.76 353.524 111.351 362.824 111.543 L 362.959 83.8261 z"/>
<path transform="translate(0,0)" fill="rgb(0,0,0)" d="M 474.917 723.815 C 480.731 729.323 485.51 734.201 493.553 736.137 C 505.695 735.332 518.125 736.361 530.263 736.986 C 539.48 737.011 548.856 737.395 558.052 736.918 C 567.389 736.402 576.795 736.829 586.139 737.045 L 613.905 737.113 C 613.979 741.724 615.018 750.036 612.829 754.035 C 603.927 753.685 595.017 753.566 586.109 753.678 L 586.04 809.09 L 558.11 809.2 L 558.106 781.297 C 539.54 781.87 520.827 780.561 502.301 781.399 L 502.294 754.092 L 498.857 753.862 C 490.72 753.332 482.493 753.322 474.338 753.094 C 474.443 743.333 474.636 733.572 474.917 723.815 z"/>
<path transform="translate(0,0)" fill="rgb(0,0,0)" d="M 474.917 723.815 C 480.731 729.323 485.51 734.201 493.553 736.137 C 496.449 736.566 499.803 736.266 501.501 739.013 C 504.14 743.281 502.505 748.15 501.376 752.609 L 498.857 753.862 C 490.72 753.332 482.493 753.322 474.338 753.094 C 474.443 743.333 474.636 733.572 474.917 723.815 z"/>
<path transform="translate(0,0)" fill="rgb(214,213,215)" d="M 493.553 736.137 C 505.695 735.332 518.125 736.361 530.263 736.986 C 530.209 742.562 530.063 748.155 530.246 753.728 C 522.078 753.673 509.966 751.996 502.294 754.092 L 498.857 753.862 L 501.376 752.609 C 502.505 748.15 504.14 743.281 501.501 739.013 C 499.803 736.266 496.449 736.566 493.553 736.137 z"/>
<path transform="translate(0,0)" fill="rgb(214,213,215)" d="M 558.052 736.918 C 567.389 736.402 576.795 736.829 586.139 737.045 L 586.081 753.437 C 576.796 753.713 567.418 753.294 558.127 753.145 L 558.052 736.918 z"/>
<path transform="translate(0,0)" fill="rgb(0,0,0)" d="M 111.897 306.964 L 306.984 307.009 L 306.957 334.731 L 111.734 334.846 L 111.897 306.964 z"/>
<path transform="translate(0,0)" fill="rgb(0,0,0)" d="M 1032.77 976.923 C 1051.38 976.928 1070.01 976.766 1088.61 977.013 L 1088.28 1004.8 L 1060.69 1004.98 C 1060.49 1023.49 1060.25 1042.13 1060.83 1060.63 L 1004.95 1060.75 L 1004.93 1088.31 C 995.64 1088.66 986.24 1088.36 976.94 1088.36 L 976.932 1060.54 C 986.263 1060.72 995.596 1060.68 1004.92 1060.42 L 1004.86 1032.81 L 1032.46 1032.77 C 1032.8 1014.16 1032.91 995.539 1032.77 976.923 z"/>
<path transform="translate(0,0)" fill="rgb(0,0,0)" d="M 1088.48 1032.74 C 1097.7 1032.67 1106.92 1032.72 1116.14 1032.88 L 1116.2 1059 C 1116.25 1078.05 1116.07 1097.13 1116.62 1116.17 C 1079.43 1116.32 1042.05 1116.91 1004.87 1116.14 L 1004.93 1088.31 C 1032.67 1089.13 1060.6 1088.47 1088.37 1088.38 C 1088.44 1069.96 1089.38 1051.11 1088.48 1032.74 z"/>
<path transform="translate(0,0)" fill="rgb(0,0,0)" d="M 502.301 781.399 C 502.165 799.873 501.371 818.72 502.267 837.16 L 474.426 837.293 C 474.15 846.555 474.292 855.834 474.338 865.1 L 446.45 865.043 C 446.599 855.723 446.653 846.402 446.611 837.082 C 437.36 837.51 427.96 837.178 418.692 837.181 L 418.769 809.236 L 474.202 809.13 L 474.825 781.159 C 483.983 781.328 493.142 781.408 502.301 781.399 z"/>
<path transform="translate(0,0)" fill="rgb(0,0,0)" d="M 753.903 613.91 L 781.348 613.983 C 781.335 623.228 781.574 632.547 781.261 641.782 L 837.082 641.952 L 837.25 697.684 L 809.466 697.943 C 809.202 688.623 809.102 679.299 809.165 669.976 C 790.566 669.819 771.966 669.794 753.367 669.901 C 753.448 651.237 753.626 632.573 753.903 613.91 z"/>
<path transform="translate(0,0)" fill="rgb(0,0,0)" d="M 84.0632 781.506 C 93.2479 781.072 102.462 781.644 111.668 781.235 C 110.45 817.944 111.916 854.908 111.4 891.658 L 110.433 892.719 C 101.755 893.679 92.7101 893.153 83.979 893.09 C 83.1222 856.079 83.008 818.508 84.0632 781.506 z"/>
<path transform="translate(0,0)" fill="rgb(0,0,0)" d="M 586.125 865.016 L 613.986 865.105 L 614.023 948.918 L 586.017 948.928 L 586.125 865.016 z"/>
<path transform="translate(0,0)" fill="rgb(0,0,0)" d="M 697.969 893.016 L 753.336 893.14 L 753.658 920.98 L 725.871 921.097 C 725.59 930.335 725.776 939.597 725.842 948.838 L 697.666 948.959 C 698.163 930.346 697.876 911.64 697.969 893.016 z"/>
<path transform="translate(0,0)" fill="rgb(0,0,0)" d="M 530.177 865.082 L 558.011 865.077 L 558.069 920.978 C 539.481 920.972 520.872 921.161 502.287 920.95 C 502.288 911.635 502.433 902.321 502.719 893.011 L 530.092 892.984 L 530.177 865.082 z"/>
<path transform="translate(0,0)" fill="rgb(0,0,0)" d="M 530.463 948.895 L 586.017 948.928 L 586.024 1004.46 C 576.802 1005.09 567.407 1004.81 558.16 1004.85 L 558.012 976.967 L 530.133 976.93 C 530.052 967.584 530.162 958.237 530.463 948.895 z"/>
<path transform="translate(0,0)" fill="rgb(0,0,0)" d="M 307.085 195.152 C 316.364 195.079 325.643 195.107 334.922 195.237 L 334.889 278.871 L 307.015 278.979 L 307.085 195.152 z"/>
<path transform="translate(0,0)" fill="rgb(0,0,0)" d="M 167.275 753.381 C 176.541 753.534 185.81 753.509 195.075 753.305 L 195.079 808.868 C 186.834 810.595 175.88 809.306 167.325 809.329 C 166.749 790.74 167.265 771.987 167.275 753.381 z"/>
<path transform="translate(0,0)" fill="rgb(0,0,0)" d="M 334.886 1088.36 C 353.056 1088.97 372.383 1089.46 390.508 1088.29 C 390.552 1096.92 390.848 1105.63 390.484 1114.25 L 389.984 1115.75 C 372.469 1117.81 352.609 1116.38 334.921 1116.2 L 334.886 1088.36 z"/>
<path transform="translate(0,0)" fill="rgb(0,0,0)" d="M 1060.76 586.028 L 1116.25 586.105 C 1116.32 595.394 1116.15 604.694 1116.08 613.984 L 1060.67 613.948 L 1060.76 586.028 z"/>
<path transform="translate(0,0)" fill="rgb(0,0,0)" d="M 139.817 809.205 C 148.878 809.567 158.073 809.244 167.148 809.241 L 167.357 865.031 L 139.779 865.022 C 138.947 846.494 139.531 827.747 139.817 809.205 z"/>
<path transform="translate(0,0)" fill="rgb(0,0,0)" d="M 418.699 893.042 L 474.203 893.136 L 474.229 920.906 L 418.639 921.034 C 418.67 911.72 418.923 902.35 418.699 893.042 z"/>
<path transform="translate(0,0)" fill="rgb(0,0,0)" d="M 948.966 809.205 L 976.941 809.289 L 976.884 837.106 L 948.976 837.133 L 948.966 809.205 z"/>
<path transform="translate(0,0)" fill="rgb(0,0,0)" d="M 446.576 167.39 C 446.445 176.63 446.461 185.87 446.624 195.109 L 419.607 195.094 C 416.846 191.923 418.659 172.282 418.74 167.143 C 428.02 167.097 437.299 167.18 446.576 167.39 z"/>
<path transform="translate(0,0)" fill="rgb(0,0,0)" d="M 809.695 725.077 C 818.757 725.865 828.066 725.658 837.165 725.779 C 837.181 734.545 838.356 744.903 836.613 753.405 C 827.495 753.659 818.356 753.415 809.236 753.286 C 809.091 743.869 809.375 734.488 809.695 725.077 z"/>
<path transform="translate(0,0)" fill="rgb(0,0,0)" d="M 781.636 586.012 L 809.196 586.119 L 809.24 614 L 781.177 613.95 L 781.636 586.012 z"/>
<path transform="translate(0,0)" fill="rgb(0,0,0)" d="M 334.917 753.347 C 344.209 753.381 353.501 753.357 362.793 753.273 C 362.774 762.528 362.285 772.054 362.918 781.274 L 334.936 781.351 L 334.917 753.347 z"/>
<path transform="translate(0,0)" fill="rgb(0,0,0)" d="M 1088.7 306.938 L 1116.25 306.947 L 1116.42 334.858 L 1088.3 334.902 C 1088.36 325.58 1088.5 316.258 1088.7 306.938 z"/>
<path transform="translate(0,0)" fill="rgb(0,0,0)" d="M 139.334 530.051 L 167.312 530.161 L 167.329 557.981 L 139.796 558.03 C 139.494 548.698 139.211 539.389 139.334 530.051 z"/>
<path transform="translate(0,0)" fill="rgb(0,0,0)" d="M 474.633 84.0679 C 481.835 81.7279 494.393 83.6158 502.234 83.9441 C 502.205 93.1239 501.774 102.505 502.325 111.659 C 493.028 111.627 483.698 111.419 474.405 111.584 L 474.633 84.0679 z"/>
<path transform="translate(0,0)" fill="rgb(0,0,0)" d="M 502.325 111.659 C 511.562 111.559 520.827 111.323 530.058 111.731 L 530.086 139.46 C 520.762 139.306 511.435 139.283 502.11 139.39 C 502.193 130.162 502.496 120.882 502.325 111.659 z"/>
<path transform="translate(0,0)" fill="rgb(0,0,0)" d="M 251.093 641.958 L 278.997 641.893 L 279.011 669.658 C 269.694 669.878 260.352 669.762 251.031 669.773 L 251.093 641.958 z"/>
<path transform="translate(0,0)" fill="rgb(0,0,0)" d="M 251.243 697.753 L 279.047 697.901 L 279.089 725.816 C 269.774 725.565 260.425 725.709 251.106 725.704 C 250.927 716.393 251.138 707.065 251.243 697.753 z"/>
<path transform="translate(0,0)" fill="rgb(0,0,0)" d="M 334.952 167.4 L 362.856 167.132 C 362.843 176.439 362.585 185.814 362.876 195.113 L 334.922 195.237 L 334.952 167.4 z"/>
<path transform="translate(0,0)" fill="rgb(0,0,0)" d="M 362.876 195.113 L 390.815 195.264 C 390.754 204.444 390.287 213.829 390.848 222.985 L 362.679 223.081 L 362.876 195.113 z"/>
<path transform="translate(0,0)" fill="rgb(0,0,0)" d="M 949.046 1032.73 L 976.898 1032.89 L 976.844 1060.61 C 967.591 1060.86 958.319 1060.76 949.063 1060.76 L 949.046 1032.73 z"/>
<path transform="translate(0,0)" fill="rgb(0,0,0)" d="M 307.066 83.7418 L 334.868 83.7988 L 334.843 111.569 L 306.952 111.74 C 306.771 102.414 306.975 93.0695 307.066 83.7418 z"/>
<path transform="translate(0,0)" fill="rgb(0,0,0)" d="M 502.267 837.16 L 530.124 837.253 C 530.131 846.515 529.933 855.826 530.177 865.082 L 502.148 865.026 L 502.267 837.16 z"/>
<path transform="translate(0,0)" fill="rgb(0,0,0)" d="M 83.949 558.132 L 111.681 558.081 C 111.635 567.384 111.484 576.702 111.889 585.998 L 83.9395 586.072 C 83.639 576.761 83.6422 567.442 83.949 558.132 z"/>
<path transform="translate(0,0)" fill="rgb(0,0,0)" d="M 474.462 921.032 L 502.287 920.95 L 502.179 948.95 C 492.933 949.079 483.685 949.029 474.44 948.8 L 474.462 921.032 z"/>
<path transform="translate(0,0)" fill="rgb(0,0,0)" d="M 418.888 725.373 C 428.041 725.898 437.272 725.75 446.441 725.814 C 446.3 734.272 447.838 745.535 445.581 753.509 C 436.658 753.022 427.53 753.378 418.582 753.346 C 418.423 744.03 418.727 734.689 418.888 725.373 z"/>
<path transform="translate(0,0)" fill="rgb(0,0,0)" d="M 446.957 139.828 C 456.016 139.523 465.019 139.35 474.082 139.539 C 474.265 148.781 474.332 158.026 474.283 167.27 C 465.047 167.228 455.811 167.268 446.576 167.39 C 446.607 158.213 446.474 148.994 446.957 139.828 z"/>
<path transform="translate(0,0)" fill="rgb(0,0,0)" d="M 753.664 558.073 L 781.394 558.125 L 781.296 585.99 L 753.854 585.991 C 753.743 576.686 753.68 567.379 753.664 558.073 z"/>
<path transform="translate(0,0)" fill="rgb(0,0,0)" d="M 83.9703 334.93 L 111.734 334.846 C 111.581 343.932 110.742 353.589 111.588 362.612 L 83.8967 362.872 C 83.6245 353.572 83.8783 344.234 83.9703 334.93 z"/>
<path transform="translate(0,0)" fill="rgb(0,0,0)" d="M 139.657 725.741 L 167.275 725.603 C 167.279 734.821 167.334 744.037 166.93 753.248 C 157.802 753.535 148.699 753.423 139.569 753.28 C 139.248 744.078 139.395 734.944 139.657 725.741 z"/>
<path transform="translate(0,0)" fill="rgb(0,0,0)" d="M 586.159 1088.26 C 595.348 1088.74 604.723 1088.5 613.927 1088.31 L 613.911 1116.05 C 604.611 1116.24 595.308 1116.27 586.006 1116.15 L 586.159 1088.26 z"/>
<path transform="translate(0,0)" fill="rgb(0,0,0)" d="M 418.871 1088.44 L 446.27 1088.3 C 446.272 1097.54 446.142 1106.81 446.604 1116.04 L 418.733 1116.31 C 418.551 1107.02 418.597 1097.73 418.871 1088.44 z"/>
<path transform="translate(0,0)" fill="rgb(0,0,0)" d="M 737.257 669.717 L 753.675 670.033 C 753.658 679.185 753.275 688.492 753.681 697.626 C 748.135 697.76 742.548 698.053 737.014 697.59 C 737.087 688.302 737.063 679.003 737.257 669.717 z"/>
<path transform="translate(0,0)" fill="rgb(0,0,0)" d="M 737.044 530.104 L 753.69 530.096 C 753.581 539.259 752.8 548.972 753.664 558.073 L 736.976 558.075 C 737.172 548.763 737.032 539.42 737.044 530.104 z"/>
<path transform="translate(0,0)" fill="rgb(0,0,0)" d="M 446.82 669.822 L 462.978 669.908 C 462.914 679.194 462.989 688.48 463.203 697.764 L 446.783 697.912 C 446.371 688.533 446.586 679.203 446.82 669.822 z"/>
</svg>